<svg xmlns="http://www.w3.org/2000/svg" width="200" height="217" viewBox="0 0 200 217" version="1.1"><path d="M 145.266 94.272 L 108.032 114.500 108.016 155.333 C 108.005 182.058, 108.345 196.051, 108.998 195.833 C 109.547 195.650, 126.632 186.500, 146.966 175.500 L 183.936 155.500 183.968 114.750 C 183.986 92.338, 183.662 74.010, 183.250 74.022 C 182.838 74.034, 165.745 83.147, 145.266 94.272" stroke="none" fill="#80d8e2" fill-rule="evenodd"/><path d="M 16.239 114.717 L 16.500 155.433 53 175.304 C 73.075 186.233, 90.063 195.409, 90.750 195.695 C 91.738 196.105, 91.995 187.660, 91.977 155.357 L 91.955 114.500 54.570 94.250 C 34.008 83.112, 16.913 74, 16.581 74 C 16.249 74, 16.095 92.323, 16.239 114.717" stroke="none" fill="#ffdb80" fill-rule="evenodd"/><path d="M 62.283 39.297 C 41.814 50.409, 25.070 59.725, 25.074 60 C 25.079 60.275, 41.957 69.615, 62.580 80.756 L 100.079 101.012 137.506 80.756 C 158.091 69.615, 174.935 60.275, 174.937 60 C 174.940 59.516, 100.576 18.953, 99.857 19.047 C 99.661 19.072, 82.752 28.185, 62.283 39.297" stroke="none" fill="#fc785e" fill-rule="evenodd"/><path d="M 50.348 27.317 C 24.965 41.175, 3.252 53.367, 2.098 54.411 C 0.017 56.295, 0 56.743, 0 109.981 L -0 163.651 2.250 165.703 C 3.487 166.831, 24.920 178.834, 49.877 192.377 C 91.174 214.786, 95.684 217, 100.038 217 C 104.392 217, 108.894 214.790, 150.161 192.387 C 175.097 178.850, 196.738 166.616, 198.250 165.200 L 201 162.626 201 108.646 C 201 78.957, 200.696 54.971, 200.324 55.342 C 199.952 55.714, 198.715 55.163, 197.574 54.118 C 196.433 53.073, 174.675 40.919, 149.222 27.109 C 114.988 8.534, 102.106 2.016, 99.722 2.061 C 97.472 2.104, 82.582 9.720, 50.348 27.317 M 62.283 39.297 C 41.814 50.409, 25.070 59.725, 25.074 60 C 25.079 60.275, 41.957 69.615, 62.580 80.756 L 100.079 101.012 137.506 80.756 C 158.091 69.615, 174.935 60.275, 174.937 60 C 174.940 59.516, 100.576 18.953, 99.857 19.047 C 99.661 19.072, 82.752 28.185, 62.283 39.297 M 0.466 110 C 0.466 139.975, 0.594 152.237, 0.749 137.250 C 0.905 122.262, 0.905 97.737, 0.749 82.750 C 0.594 67.762, 0.466 80.025, 0.466 110 M 16.015 114.338 L 16.031 155.500 53.364 175.750 C 73.898 186.887, 90.991 196, 91.349 196 C 91.707 196, 91.996 177.662, 91.992 155.250 L 91.984 114.500 79.742 107.834 C 73.009 104.167, 55.913 94.869, 41.750 87.172 L 16 73.177 16.015 114.338 M 145.266 94.272 L 108.032 114.500 108.016 155.333 C 108.005 182.058, 108.345 196.051, 108.998 195.833 C 109.547 195.650, 126.632 186.500, 146.966 175.500 L 183.936 155.500 183.968 114.750 C 183.986 92.338, 183.662 74.010, 183.250 74.022 C 182.838 74.034, 165.745 83.147, 145.266 94.272" stroke="none" fill="#2d4454" fill-rule="evenodd"/></svg>